<?xml version="1.0" standalone="yes"?>

<svg version="1.1" viewBox="0.0 0.0 1228.6351706036746 694.0918635170603" fill="none" stroke="none" stroke-linecap="square" stroke-miterlimit="10" xmlns="http://www.w3.org/2000/svg" xmlns:xlink="http://www.w3.org/1999/xlink"><clipPath id="p.0"><path d="m0 0l1228.6351 0l0 694.09186l-1228.6351 0l0 -694.09186z" clip-rule="nonzero"></path></clipPath><g clip-path="url(#p.0)"><path fill="#000000" fill-opacity="0.0" d="m0 0l1228.6351 0l0 694.09186l-1228.6351 0z" fill-rule="evenodd"></path><path fill="#fce5cd" d="m449.56693 331.92126l0 0c0 -80.22481 65.035065 -145.25984 145.25986 -145.25984l0 0c38.52527 0 75.47272 15.304108 102.71423 42.545624c27.241455 27.2415 42.545593 64.18892 42.545593 102.71422l0 0c0 80.22479 -65.035034 145.25983 -145.25983 145.25983l0 0c-80.22479 0 -145.25986 -65.035034 -145.25986 -145.25983z" fill-rule="evenodd"></path><path stroke="#000000" stroke-width="1.0" stroke-linejoin="round" stroke-linecap="butt" d="m449.56693 331.92126l0 0c0 -80.22481 65.035065 -145.25984 145.25986 -145.25984l0 0c38.52527 0 75.47272 15.304108 102.71423 42.545624c27.241455 27.2415 42.545593 64.18892 42.545593 102.71422l0 0c0 80.22479 -65.035034 145.25983 -145.25983 145.25983l0 0c-80.22479 0 -145.25986 -65.035034 -145.25986 -145.25983z" fill-rule="evenodd"></path><path fill="#000000" d="m531.41895 338.84125l0 -13.59375l2.71875 0l3.21875 9.625q0.4375 1.34375 0.640625 2.015625q0.234375 -0.75 0.734375 -2.1875l3.25 -9.453125l2.421875 0l0 13.59375l-1.734375 0l0 -11.390625l-3.953125 11.390625l-1.625 0l-3.9375 -11.578125l0 11.578125l-1.734375 0zm21.837708 0l0 -1.453125q-1.140625 1.671875 -3.125 1.671875q-0.859375 0 -1.625 -0.328125q-0.75 -0.34375 -1.125 -0.84375q-0.359375 -0.5 -0.515625 -1.234375q-0.09375 -0.5 -0.09375 -1.5625l0 -6.109375l1.671875 0l0 5.46875q0 1.3125 0.09375 1.765625q0.15625 0.65625 0.671875 1.03125q0.515625 0.375 1.265625 0.375q0.75 0 1.40625 -0.375q0.65625 -0.390625 0.921875 -1.046875q0.28125 -0.671875 0.28125 -1.9375l0 -5.28125l1.671875 0l0 9.859375l-1.5 0zm3.8912964 0l0 -13.59375l1.671875 0l0 13.59375l-1.671875 0zm7.8323364 -1.5l0.234375 1.484375q-0.703125 0.140625 -1.265625 0.140625q-0.90625 0 -1.40625 -0.28125q-0.5 -0.296875 -0.703125 -0.75q-0.203125 -0.46875 -0.203125 -1.984375l0 -5.65625l-1.234375 0l0 -1.3125l1.234375 0l0 -2.4375l1.65625 -1.0l0 3.4375l1.6875 0l0 1.3125l-1.6875 0l0 5.75q0 0.71875 0.078125 0.921875q0.09375 0.203125 0.296875 0.328125q0.203125 0.125 0.578125 0.125q0.265625 0 0.734375 -0.078125zm1.5426636 -10.1875l0 -1.90625l1.671875 0l0 1.90625l-1.671875 0zm0 11.6875l0 -9.859375l1.671875 0l0 9.859375l-1.671875 0zm4.1292114 3.78125l0 -13.640625l1.53125 0l0 1.28125q0.53125 -0.75 1.203125 -1.125q0.6875 -0.375 1.640625 -0.375q1.265625 0 2.234375 0.65625q0.96875 0.640625 1.453125 1.828125q0.5 1.1875 0.5 2.59375q0 1.515625 -0.546875 2.734375q-0.546875 1.203125 -1.578125 1.84375q-1.03125 0.640625 -2.171875 0.640625q-0.84375 0 -1.515625 -0.34375q-0.65625 -0.359375 -1.078125 -0.890625l0 4.796875l-1.671875 0zm1.515625 -8.65625q0 1.90625 0.765625 2.8125q0.78125 0.90625 1.875 0.90625q1.109375 0 1.890625 -0.9375q0.796875 -0.9375 0.796875 -2.921875q0 -1.875 -0.78125 -2.8125q-0.765625 -0.9375 -1.84375 -0.9375q-1.0625 0 -1.890625 1.0q-0.8125 1.0 -0.8125 2.890625zm8.828857 4.875l0 -13.59375l1.671875 0l0 13.59375l-1.671875 0zm10.926086 -3.171875l1.71875 0.21875q-0.40625 1.5 -1.515625 2.34375q-1.09375 0.828125 -2.8125 0.828125q-2.15625 0 -3.421875 -1.328125q-1.265625 -1.328125 -1.265625 -3.734375q0 -2.484375 1.265625 -3.859375q1.28125 -1.375 3.328125 -1.375q1.984375 0 3.234375 1.34375q1.25 1.34375 1.25 3.796875q0 0.140625 -0.015625 0.4375l-7.34375 0q0.09375 1.625 0.921875 2.484375q0.828125 0.859375 2.0625 0.859375q0.90625 0 1.546875 -0.46875q0.65625 -0.484375 1.046875 -1.546875zm-5.484375 -2.703125l5.5 0q-0.109375 -1.234375 -0.625 -1.859375q-0.796875 -0.96875 -2.078125 -0.96875q-1.140625 0 -1.9375 0.78125q-0.78125 0.765625 -0.859375 2.046875zm7.8287964 5.875l5.234375 -13.59375l1.9375 0l5.5625 13.59375l-2.046875 0l-1.59375 -4.125l-5.6875 0l-1.484375 4.125l-1.921875 0zm3.921875 -5.578125l4.609375 0l-1.40625 -3.78125q-0.65625 -1.703125 -0.96875 -2.8125q-0.265625 1.3125 -0.734375 2.59375l-1.5 4.0zm16.193604 5.578125l0 -1.25q-0.9375 1.46875 -2.75 1.46875q-1.171875 0 -2.171875 -0.640625q-0.984375 -0.65625 -1.53125 -1.8125q-0.53125 -1.171875 -0.53125 -2.6875q0 -1.46875 0.484375 -2.671875q0.5 -1.203125 1.46875 -1.84375q0.984375 -0.640625 2.203125 -0.640625q0.890625 0 1.578125 0.375q0.703125 0.375 1.140625 0.984375l0 -4.875l1.65625 0l0 13.59375l-1.546875 0zm-5.28125 -4.921875q0 1.890625 0.796875 2.828125q0.8125 0.9375 1.890625 0.9375q1.09375 0 1.859375 -0.890625q0.765625 -0.890625 0.765625 -2.734375q0 -2.015625 -0.78125 -2.953125q-0.78125 -0.953125 -1.921875 -0.953125q-1.109375 0 -1.859375 0.90625q-0.75 0.90625 -0.75 2.859375zm15.703857 3.703125q-0.9375 0.796875 -1.796875 1.125q-0.859375 0.3125 -1.84375 0.3125q-1.609375 0 -2.484375 -0.78125q-0.875 -0.796875 -0.875 -2.03125q0 -0.734375 0.328125 -1.328125q0.328125 -0.59375 0.859375 -0.953125q0.53125 -0.359375 1.203125 -0.546875q0.5 -0.140625 1.484375 -0.25q2.03125 -0.25 2.984375 -0.578125q0 -0.34375 0 -0.4375q0 -1.015625 -0.46875 -1.4375q-0.640625 -0.5625 -1.90625 -0.5625q-1.171875 0 -1.734375 0.40625q-0.5625 0.40625 -0.828125 1.46875l-1.640625 -0.234375q0.234375 -1.046875 0.734375 -1.6875q0.515625 -0.640625 1.46875 -0.984375q0.96875 -0.359375 2.25 -0.359375q1.265625 0 2.046875 0.296875q0.78125 0.296875 1.15625 0.75q0.375 0.453125 0.515625 1.140625q0.09375 0.421875 0.09375 1.53125l0 2.234375q0 2.328125 0.09375 2.953125q0.109375 0.609375 0.4375 1.171875l-1.75 0q-0.265625 -0.515625 -0.328125 -1.21875zm-0.140625 -3.71875q-0.90625 0.359375 -2.734375 0.625q-1.03125 0.140625 -1.453125 0.328125q-0.421875 0.1875 -0.65625 0.546875q-0.234375 0.359375 -0.234375 0.796875q0 0.671875 0.5 1.125q0.515625 0.4375 1.484375 0.4375q0.96875 0 1.71875 -0.421875q0.75 -0.4375 1.109375 -1.15625q0.265625 -0.578125 0.265625 -1.671875l0 -0.609375zm4.0787964 8.71875l0 -13.640625l1.53125 0l0 1.28125q0.53125 -0.75 1.203125 -1.125q0.6875 -0.375 1.640625 -0.375q1.265625 0 2.234375 0.65625q0.96875 0.640625 1.453125 1.828125q0.5 1.1875 0.5 2.59375q0 1.515625 -0.546875 2.734375q-0.546875 1.203125 -1.578125 1.84375q-1.03125 0.640625 -2.171875 0.640625q-0.84375 0 -1.515625 -0.34375q-0.65625 -0.359375 -1.078125 -0.890625l0 4.796875l-1.671875 0zm1.515625 -8.65625q0 1.90625 0.765625 2.8125q0.78125 0.90625 1.875 0.90625q1.109375 0 1.890625 -0.9375q0.796875 -0.9375 0.796875 -2.921875q0 -1.875 -0.78125 -2.8125q-0.765625 -0.9375 -1.84375 -0.9375q-1.0625 0 -1.890625 1.0q-0.8125 1.0 -0.8125 2.890625zm12.516357 3.375l0.234375 1.484375q-0.703125 0.140625 -1.265625 0.140625q-0.90625 0 -1.40625 -0.28125q-0.5 -0.296875 -0.703125 -0.75q-0.203125 -0.46875 -0.203125 -1.984375l0 -5.65625l-1.234375 0l0 -1.3125l1.234375 0l0 -2.4375l1.65625 -1.0l0 3.4375l1.6875 0l0 1.3125l-1.6875 0l0 5.75q0 0.71875 0.078125 0.921875q0.09375 0.203125 0.296875 0.328125q0.203125 0.125 0.578125 0.125q0.265625 0 0.734375 -0.078125zm8.277039 -1.671875l1.71875 0.21875q-0.40625 1.5 -1.515625 2.34375q-1.09375 0.828125 -2.8125 0.828125q-2.15625 0 -3.421875 -1.328125q-1.265625 -1.328125 -1.265625 -3.734375q0 -2.484375 1.265625 -3.859375q1.28125 -1.375 3.328125 -1.375q1.984375 0 3.234375 1.34375q1.25 1.34375 1.25 3.796875q0 0.140625 -0.015625 0.4375l-7.34375 0q0.09375 1.625 0.921875 2.484375q0.828125 0.859375 2.0625 0.859375q0.90625 0 1.546875 -0.46875q0.65625 -0.484375 1.046875 -1.546875zm-5.484375 -2.703125l5.5 0q-0.109375 -1.234375 -0.625 -1.859375q-0.796875 -0.96875 -2.078125 -0.96875q-1.140625 0 -1.9375 0.78125q-0.78125 0.765625 -0.859375 2.046875zm9.094482 5.875l0 -9.859375l1.5 0l0 1.5q0.578125 -1.046875 1.0625 -1.375q0.484375 -0.34375 1.078125 -0.34375q0.84375 0 1.71875 0.546875l-0.578125 1.546875q-0.609375 -0.359375 -1.234375 -0.359375q-0.546875 0 -0.984375 0.328125q-0.421875 0.328125 -0.609375 0.90625q-0.28125 0.890625 -0.28125 1.953125l0 5.15625l-1.671875 0z" fill-rule="nonzero"></path><path fill="#c9daf8" d="m135.39896 48.64042l211.65353 0l0 128.81891l-211.65353 0z" fill-rule="evenodd"></path><path stroke="#000000" stroke-width="1.0" stroke-linejoin="round" stroke-linecap="butt" d="m135.39896 48.64042l211.65353 0l0 128.81891l-211.65353 0z" fill-rule="evenodd"></path><path fill="#000000" d="m186.22408 119.96987l0 -13.59375l6.03125 0q1.8125 0 2.75 0.359375q0.953125 0.359375 1.515625 1.296875q0.5625 0.921875 0.5625 2.046875q0 1.453125 -0.9375 2.453125q-0.921875 0.984375 -2.890625 1.25q0.71875 0.34375 1.09375 0.671875q0.78125 0.734375 1.484375 1.8125l2.375 3.703125l-2.265625 0l-1.796875 -2.828125q-0.796875 -1.21875 -1.3125 -1.875q-0.5 -0.65625 -0.90625 -0.90625q-0.40625 -0.265625 -0.8125 -0.359375q-0.3125 -0.078125 -1.015625 -0.078125l-2.078125 0l0 6.046875l-1.796875 0zm1.796875 -7.59375l3.859375 0q1.234375 0 1.921875 -0.25q0.703125 -0.265625 1.0625 -0.828125q0.375 -0.5625 0.375 -1.21875q0 -0.96875 -0.703125 -1.578125q-0.703125 -0.625 -2.21875 -0.625l-4.296875 0l0 4.5zm18.176071 4.421875l1.71875 0.21875q-0.40625 1.5 -1.515625 2.34375q-1.09375 0.828125 -2.8125 0.828125q-2.15625 0 -3.421875 -1.328125q-1.265625 -1.328125 -1.265625 -3.734375q0 -2.484375 1.265625 -3.859375q1.28125 -1.375 3.328125 -1.375q1.984375 0 3.234375 1.34375q1.25 1.34375 1.25 3.796875q0 0.140625 -0.015625 0.4375l-7.34375 0q0.09375 1.625 0.921875 2.484375q0.828125 0.859375 2.0625 0.859375q0.90625 0 1.546875 -0.46875q0.65625 -0.484375 1.046875 -1.546875zm-5.484375 -2.703125l5.5 0q-0.109375 -1.234375 -0.625 -1.859375q-0.796875 -0.96875 -2.078125 -0.96875q-1.140625 0 -1.9375 0.78125q-0.78125 0.765625 -0.859375 2.046875zm15.547592 2.265625l1.640625 0.21875q-0.265625 1.6875 -1.375 2.65625q-1.109375 0.953125 -2.734375 0.953125q-2.015625 0 -3.25 -1.3125q-1.21875 -1.328125 -1.21875 -3.796875q0 -1.59375 0.515625 -2.78125q0.53125 -1.203125 1.609375 -1.796875q1.09375 -0.609375 2.359375 -0.609375q1.609375 0 2.625 0.8125q1.015625 0.8125 1.3125 2.3125l-1.625 0.25q-0.234375 -1.0 -0.828125 -1.5q-0.59375 -0.5 -1.421875 -0.5q-1.265625 0 -2.0625 0.90625q-0.78125 0.90625 -0.78125 2.859375q0 1.984375 0.765625 2.890625q0.765625 0.890625 1.984375 0.890625q0.984375 0 1.640625 -0.59375q0.65625 -0.609375 0.84375 -1.859375zm2.8125 7.40625l-0.171875 -1.5625q0.546875 0.140625 0.953125 0.140625q0.546875 0 0.875 -0.1875q0.34375 -0.1875 0.5625 -0.515625q0.15625 -0.25 0.5 -1.25q0.046875 -0.140625 0.15625 -0.40625l-3.734375 -9.875l1.796875 0l2.046875 5.71875q0.40625 1.078125 0.71875 2.28125q0.28125 -1.15625 0.6875 -2.25l2.09375 -5.75l1.671875 0l-3.75 10.03125q-0.59375 1.625 -0.9375 2.234375q-0.4375 0.828125 -1.015625 1.203125q-0.578125 0.390625 -1.375 0.390625q-0.484375 0 -1.078125 -0.203125zm15.84375 -7.40625l1.640625 0.21875q-0.265625 1.6875 -1.375 2.65625q-1.109375 0.953125 -2.734375 0.953125q-2.015625 0 -3.25 -1.3125q-1.21875 -1.328125 -1.21875 -3.796875q0 -1.59375 0.515625 -2.78125q0.53125 -1.203125 1.609375 -1.796875q1.09375 -0.609375 2.359375 -0.609375q1.609375 0 2.625 0.8125q1.015625 0.8125 1.3125 2.3125l-1.625 0.25q-0.234375 -1.0 -0.828125 -1.5q-0.59375 -0.5 -1.421875 -0.5q-1.265625 0 -2.0625 0.90625q-0.78125 0.90625 -0.78125 2.859375q0 1.984375 0.765625 2.890625q0.765625 0.890625 1.984375 0.890625q0.984375 0 1.640625 -0.59375q0.65625 -0.609375 0.84375 -1.859375zm2.859375 3.609375l0 -13.59375l1.671875 0l0 13.59375l-1.671875 0zm10.926071 -3.171875l1.71875 0.21875q-0.40625 1.5 -1.515625 2.34375q-1.09375 0.828125 -2.8125 0.828125q-2.15625 0 -3.421875 -1.328125q-1.265625 -1.328125 -1.265625 -3.734375q0 -2.484375 1.265625 -3.859375q1.28125 -1.375 3.328125 -1.375q1.984375 0 3.234375 1.34375q1.25 1.34375 1.25 3.796875q0 0.140625 -0.015625 0.4375l-7.34375 0q0.09375 1.625 0.921875 2.484375q0.828125 0.859375 2.0625 0.859375q0.90625 0 1.546875 -0.46875q0.65625 -0.484375 1.046875 -1.546875zm-5.484375 -2.703125l5.5 0q-0.109375 -1.234375 -0.625 -1.859375q-0.796875 -0.96875 -2.078125 -0.96875q-1.140625 0 -1.9375 0.78125q-0.78125 0.765625 -0.859375 2.046875zm9.094467 5.875l0 -9.859375l1.5 0l0 1.5q0.578125 -1.046875 1.0625 -1.375q0.484375 -0.34375 1.078125 -0.34375q0.84373474 0 1.7187347 0.546875l-0.578125 1.546875q-0.609375 -0.359375 -1.2343597 -0.359375q-0.546875 0 -0.984375 0.328125q-0.421875 0.328125 -0.609375 0.90625q-0.28125 0.890625 -0.28125 1.953125l0 5.15625l-1.671875 0zm10.337662 0l-5.28125 -13.59375l1.953125 0l3.53125 9.875q0.4375 1.1875 0.71875 2.21875q0.3125 -1.109375 0.734375 -2.21875l3.671875 -9.875l1.84375 0l-5.328125 13.59375l-1.84375 0zm8.349823 -11.6875l0 -1.90625l1.671875 0l0 1.90625l-1.671875 0zm0 11.6875l0 -9.859375l1.671875 0l0 9.859375l-1.671875 0zm10.879211 -3.171875l1.71875 0.21875q-0.40625 1.5 -1.515625 2.34375q-1.09375 0.828125 -2.8125 0.828125q-2.15625 0 -3.421875 -1.328125q-1.265625 -1.328125 -1.265625 -3.734375q0 -2.484375 1.265625 -3.859375q1.28125 -1.375 3.328125 -1.375q1.984375 0 3.234375 1.34375q1.25 1.34375 1.25 3.796875q0 0.140625 -0.015625 0.4375l-7.34375 0q0.09375 1.625 0.921875 2.484375q0.828125 0.859375 2.0625 0.859375q0.90625 0 1.546875 -0.46875q0.65625 -0.484375 1.046875 -1.546875zm-5.484375 -2.703125l5.5 0q-0.109375 -1.234375 -0.625 -1.859375q-0.796875 -0.96875 -2.078125 -0.96875q-1.140625 0 -1.9375 0.78125q-0.78125 0.765625 -0.859375 2.046875zm10.938202 5.875l-3.015625 -9.859375l1.71875 0l1.5625 5.6875l0.59375 2.125q0.03125 -0.15625 0.5 -2.03125l1.578125 -5.78125l1.71875 0l1.46875 5.71875l0.484375 1.890625l0.578125 -1.90625l1.6875 -5.703125l1.625 0l-3.078125 9.859375l-1.734375 0l-1.578125 -5.90625l-0.375 -1.671875l-2.0 7.578125l-1.734375 0z" fill-rule="nonzero"></path><path fill="#b6d7a8" d="m489.0 565.27295l211.65356 0l0 128.81891l-211.65356 0z" fill-rule="evenodd"></path><path stroke="#000000" stroke-width="1.0" stroke-linejoin="round" stroke-linecap="butt" d="m489.0 565.27295l211.65356 0l0 128.81891l-211.65356 0z" fill-rule="evenodd"></path><path fill="#000000" d="m527.34576 636.6024l0 -13.59375l4.6875 0q1.578125 0 2.421875 0.1875q1.15625 0.265625 1.984375 0.96875q1.078125 0.921875 1.609375 2.34375q0.53125 1.40625 0.53125 3.21875q0 1.546875 -0.359375 2.75q-0.359375 1.1875 -0.921875 1.984375q-0.5625 0.78125 -1.234375 1.234375q-0.671875 0.4375 -1.625 0.671875q-0.953125 0.234375 -2.1875 0.234375l-4.90625 0zm1.796875 -1.609375l2.90625 0q1.34375 0 2.109375 -0.25q0.765625 -0.25 1.21875 -0.703125q0.640625 -0.640625 1.0 -1.71875q0.359375 -1.078125 0.359375 -2.625q0 -2.125 -0.703125 -3.265625q-0.703125 -1.15625 -1.703125 -1.546875q-0.71875 -0.28125 -2.328125 -0.28125l-2.859375 0l0 10.390625zm18.207275 -1.5625l1.71875 0.21875q-0.40625 1.5 -1.515625 2.34375q-1.09375 0.828125 -2.8125 0.828125q-2.15625 0 -3.421875 -1.328125q-1.265625 -1.328125 -1.265625 -3.734375q0 -2.484375 1.265625 -3.859375q1.28125 -1.375 3.328125 -1.375q1.984375 0 3.234375 1.34375q1.25 1.34375 1.25 3.796875q0 0.140625 -0.015625 0.4375l-7.34375 0q0.09375 1.625 0.921875 2.484375q0.828125 0.859375 2.0625 0.859375q0.90625 0 1.546875 -0.46875q0.65625 -0.484375 1.046875 -1.546875zm-5.484375 -2.703125l5.5 0q-0.109375 -1.234375 -0.625 -1.859375q-0.796875 -0.96875 -2.078125 -0.96875q-1.140625 0 -1.9375 0.78125q-0.78125 0.765625 -0.859375 2.046875zm15.547607 2.265625l1.640625 0.21875q-0.265625 1.6875 -1.375 2.65625q-1.109375 0.953125 -2.734375 0.953125q-2.015625 0 -3.25 -1.3125q-1.21875 -1.328125 -1.21875 -3.796875q0 -1.59375 0.515625 -2.78125q0.53125 -1.203125 1.609375 -1.796875q1.09375 -0.609375 2.359375 -0.609375q1.609375 0 2.625 0.8125q1.015625 0.8125 1.3125 2.3125l-1.625 0.25q-0.234375 -1.0 -0.828125 -1.5q-0.59375 -0.5 -1.421875 -0.5q-1.265625 0 -2.0625 0.90625q-0.78125 0.90625 -0.78125 2.859375q0 1.984375 0.765625 2.890625q0.765625 0.890625 1.984375 0.890625q0.984375 0 1.640625 -0.59375q0.65625 -0.609375 0.84375 -1.859375zm2.265625 -1.3125q0 -2.734375 1.53125 -4.0625q1.265625 -1.09375 3.09375 -1.09375q2.03125 0 3.3125 1.34375q1.296875 1.328125 1.296875 3.671875q0 1.90625 -0.578125 3.0q-0.5625 1.078125 -1.65625 1.6875q-1.078125 0.59375 -2.375 0.59375q-2.0625 0 -3.34375 -1.328125q-1.28125 -1.328125 -1.28125 -3.8125zm1.71875 0q0 1.890625 0.828125 2.828125q0.828125 0.9375 2.078125 0.9375q1.25 0 2.0625 -0.9375q0.828125 -0.953125 0.828125 -2.890625q0 -1.828125 -0.828125 -2.765625q-0.828125 -0.9375 -2.0625 -0.9375q-1.25 0 -2.078125 0.9375q-0.828125 0.9375 -0.828125 2.828125zm9.266357 4.921875l0 -9.859375l1.5 0l0 1.5q0.578125 -1.046875 1.0625 -1.375q0.484375 -0.34375 1.078125 -0.34375q0.84375 0 1.71875 0.546875l-0.578125 1.546875q-0.609375 -0.359375 -1.234375 -0.359375q-0.546875 0 -0.984375 0.328125q-0.421875 0.328125 -0.609375 0.90625q-0.28125 0.890625 -0.28125 1.953125l0 5.15625l-1.671875 0zm12.6657715 -1.21875q-0.9375 0.796875 -1.796875 1.125q-0.859375 0.3125 -1.84375 0.3125q-1.609375 0 -2.484375 -0.78125q-0.875 -0.796875 -0.875 -2.03125q0 -0.734375 0.328125 -1.328125q0.328125 -0.59375 0.859375 -0.953125q0.53125 -0.359375 1.203125 -0.546875q0.5 -0.140625 1.484375 -0.25q2.03125 -0.25 2.984375 -0.578125q0 -0.34375 0 -0.4375q0 -1.015625 -0.46875 -1.4375q-0.640625 -0.5625 -1.90625 -0.5625q-1.171875 0 -1.734375 0.40625q-0.5625 0.40625 -0.828125 1.46875l-1.640625 -0.234375q0.234375 -1.046875 0.734375 -1.6875q0.515625 -0.640625 1.46875 -0.984375q0.96875 -0.359375 2.25 -0.359375q1.265625 0 2.046875 0.296875q0.78125 0.296875 1.15625 0.75q0.375 0.453125 0.515625 1.140625q0.09375 0.421875 0.09375 1.53125l0 2.234375q0 2.328125 0.09375 2.953125q0.109375 0.609375 0.4375 1.171875l-1.75 0q-0.265625 -0.515625 -0.328125 -1.21875zm-0.140625 -3.71875q-0.90625 0.359375 -2.734375 0.625q-1.03125 0.140625 -1.453125 0.328125q-0.421875 0.1875 -0.65625 0.546875q-0.234375 0.359375 -0.234375 0.796875q0 0.671875 0.5 1.125q0.515625 0.4375 1.484375 0.4375q0.96875 0 1.71875 -0.421875q0.75 -0.4375 1.109375 -1.15625q0.265625 -0.578125 0.265625 -1.671875l0 -0.609375zm7.7351074 3.4375l0.234375 1.484375q-0.703125 0.140625 -1.265625 0.140625q-0.90625 0 -1.40625 -0.28125q-0.5 -0.296875 -0.703125 -0.75q-0.203125 -0.46875 -0.203125 -1.984375l0 -5.65625l-1.234375 0l0 -1.3125l1.234375 0l0 -2.4375l1.65625 -1.0l0 3.4375l1.6875 0l0 1.3125l-1.6875 0l0 5.75q0 0.71875 0.078125 0.921875q0.09375 0.203125 0.296875 0.328125q0.203125 0.125 0.578125 0.125q0.265625 0 0.734375 -0.078125zm8.277039 -1.671875l1.71875 0.21875q-0.40625 1.5 -1.515625 2.34375q-1.09375 0.828125 -2.8125 0.828125q-2.15625 0 -3.421875 -1.328125q-1.265625 -1.328125 -1.265625 -3.734375q0 -2.484375 1.265625 -3.859375q1.28125 -1.375 3.328125 -1.375q1.984375 0 3.234375 1.34375q1.25 1.34375 1.25 3.796875q0 0.140625 -0.015625 0.4375l-7.34375 0q0.09375 1.625 0.921875 2.484375q0.828125 0.859375 2.0625 0.859375q0.90625 0 1.546875 -0.46875q0.65625 -0.484375 1.046875 -1.546875zm-5.484375 -2.703125l5.5 0q-0.109375 -1.234375 -0.625 -1.859375q-0.796875 -0.96875 -2.078125 -0.96875q-1.140625 0 -1.9375 0.78125q-0.78125 0.765625 -0.859375 2.046875zm9.422607 5.875l0 -13.59375l9.171875 0l0 1.59375l-7.375 0l0 4.21875l6.375 0l0 1.609375l-6.375 0l0 6.171875l-1.796875 0zm17.520996 -1.21875q-0.9375 0.796875 -1.796875 1.125q-0.859375 0.3125 -1.84375 0.3125q-1.609375 0 -2.484375 -0.78125q-0.875 -0.796875 -0.875 -2.03125q0 -0.734375 0.328125 -1.328125q0.328125 -0.59375 0.859375 -0.953125q0.53125 -0.359375 1.203125 -0.546875q0.5 -0.140625 1.484375 -0.25q2.03125 -0.25 2.984375 -0.578125q0 -0.34375 0 -0.4375q0 -1.015625 -0.46875 -1.4375q-0.640625 -0.5625 -1.90625 -0.5625q-1.171875 0 -1.734375 0.40625q-0.5625 0.40625 -0.828125 1.46875l-1.640625 -0.234375q0.234375 -1.046875 0.734375 -1.6875q0.515625 -0.640625 1.46875 -0.984375q0.96875 -0.359375 2.25 -0.359375q1.265625 0 2.046875 0.296875q0.78125 0.296875 1.15625 0.75q0.375 0.453125 0.515625 1.140625q0.09375 0.421875 0.09375 1.53125l0 2.234375q0 2.328125 0.09375 2.953125q0.109375 0.609375 0.4375 1.171875l-1.75 0q-0.265625 -0.515625 -0.328125 -1.21875zm-0.140625 -3.71875q-0.90625 0.359375 -2.734375 0.625q-1.03125 0.140625 -1.453125 0.328125q-0.421875 0.1875 -0.65625 0.546875q-0.234375 0.359375 -0.234375 0.796875q0 0.671875 0.5 1.125q0.515625 0.4375 1.484375 0.4375q0.96875 0 1.71875 -0.421875q0.75 -0.4375 1.109375 -1.15625q0.265625 -0.578125 0.265625 -1.671875l0 -0.609375zm10.516357 1.328125l1.640625 0.21875q-0.265625 1.6875 -1.375 2.65625q-1.109375 0.953125 -2.734375 0.953125q-2.015625 0 -3.25 -1.3125q-1.21875 -1.328125 -1.21875 -3.796875q0 -1.59375 0.515625 -2.78125q0.53125 -1.203125 1.609375 -1.796875q1.09375 -0.609375 2.359375 -0.609375q1.609375 0 2.625 0.8125q1.015625 0.8125 1.3125 2.3125l-1.625 0.25q-0.234375 -1.0 -0.828125 -1.5q-0.59375 -0.5 -1.421875 -0.5q-1.265625 0 -2.0625 0.90625q-0.78125 0.90625 -0.78125 2.859375q0 1.984375 0.765625 2.890625q0.765625 0.890625 1.984375 0.890625q0.984375 0 1.640625 -0.59375q0.65625 -0.609375 0.84375 -1.859375zm6.546875 2.109375l0.234375 1.484375q-0.703125 0.140625 -1.265625 0.140625q-0.90625 0 -1.40625 -0.28125q-0.5 -0.296875 -0.703125 -0.75q-0.203125 -0.46875 -0.203125 -1.984375l0 -5.65625l-1.234375 0l0 -1.3125l1.234375 0l0 -2.4375l1.65625 -1.0l0 3.4375l1.6875 0l0 1.3125l-1.6875 0l0 5.75q0 0.71875 0.078125 0.921875q0.09375 0.203125 0.296875 0.328125q0.203125 0.125 0.578125 0.125q0.265625 0 0.734375 -0.078125zm0.9020386 -3.421875q0 -2.734375 1.53125 -4.0625q1.265625 -1.09375 3.09375 -1.09375q2.03125 0 3.3125 1.34375q1.296875 1.328125 1.296875 3.671875q0 1.90625 -0.578125 3.0q-0.5625 1.078125 -1.65625 1.6875q-1.078125 0.59375 -2.375 0.59375q-2.0625 0 -3.34375 -1.328125q-1.28125 -1.328125 -1.28125 -3.8125zm1.71875 0q0 1.890625 0.828125 2.828125q0.828125 0.9375 2.078125 0.9375q1.25 0 2.0625 -0.9375q0.828125 -0.953125 0.828125 -2.890625q0 -1.828125 -0.828125 -2.765625q-0.828125 -0.9375 -2.0625 -0.9375q-1.25 0 -2.078125 0.9375q-0.828125 0.9375 -0.828125 2.828125zm9.266296 4.921875l0 -9.859375l1.5 0l0 1.5q0.578125 -1.046875 1.0625 -1.375q0.484375 -0.34375 1.078125 -0.34375q0.84375 0 1.71875 0.546875l-0.578125 1.546875q-0.609375 -0.359375 -1.234375 -0.359375q-0.546875 0 -0.984375 0.328125q-0.421875 0.328125 -0.609375 0.90625q-0.28125 0.890625 -0.28125 1.953125l0 5.15625l-1.671875 0zm6.1502075 3.796875l-0.171875 -1.5625q0.546875 0.140625 0.953125 0.140625q0.546875 0 0.875 -0.1875q0.34375 -0.1875 0.5625 -0.515625q0.15625 -0.25 0.5 -1.25q0.046875 -0.140625 0.15625 -0.40625l-3.734375 -9.875l1.796875 0l2.046875 5.71875q0.40625 1.078125 0.71875 2.28125q0.28125 -1.15625 0.6875 -2.25l2.09375 -5.75l1.671875 0l-3.75 10.03125q-0.59375 1.625 -0.9375 2.234375q-0.4375 0.828125 -1.015625 1.203125q-0.578125 0.390625 -1.375 0.390625q-0.484375 0 -1.078125 -0.203125z" fill-rule="nonzero"></path><path fill="#b4a7d6" d="m803.65094 48.64042l211.6535 0l0 128.81891l-211.6535 0z" fill-rule="evenodd"></path><path stroke="#000000" stroke-width="1.0" stroke-linejoin="round" stroke-linecap="butt" d="m803.65094 48.64042l211.6535 0l0 128.81891l-211.6535 0z" fill-rule="evenodd"></path><path fill="#000000" d="m873.3377 115.3605l-4.8125 0l0 5.65625l-1.484375 0l0 -5.65625l-4.453125 0q-0.15625 3.859375 -2.3125 6.171875l-1.1875 -1.1875q2.015625 -2.234375 2.015625 -5.203125l0 -9.5l13.71875 0l0 14.171875q0 1.203125 -1.1875 1.203125l-2.078125 0l-0.359375 -1.640625l1.84375 0q0.296875 0 0.296875 -0.296875l0 -3.71875zm-10.75 -4.15625l0 2.75l4.453125 0l0 -2.75l-4.453125 0zm0 -4.15625l0 2.75l4.453125 0l0 -2.75l-4.453125 0zm5.9375 4.15625l0 2.75l4.8125 0l0 -2.75l-4.8125 0zm0 -4.15625l0 2.75l4.8125 0l0 -2.75l-4.8125 0z" fill-rule="nonzero"></path><path fill="#000000" d="m894.11896 107.93862q-0.0625 1.78125 -0.0625 4.09375q0 2.21875 0.0625 3.484375l-1.625 0l0 -1.109375l-10.3125 0q-0.296875 2.375 -0.75 3.5625q-0.4375 1.1875 -0.96875 2.109375q-0.515625 0.9375 -1.109375 1.75q-0.734375 -0.59375 -1.625 -0.890625q1.484375 -1.5625 2.03125 -2.9375q0.5625 -1.375 0.75 -2.59375q0.1875 -1.234375 0.1875 -2.640625q0 -1.40625 -0.078125 -4.828125l13.5 0zm-1.703125 5.125l0 -3.78125l-10.3125 0l0 3.78125l10.3125 0zm-5.34375 -8.75q0.890625 1.78125 1.265625 2.8125q-0.96875 0.21875 -1.484375 0.515625q-0.515625 -1.546875 -1.1875 -2.734375q0.734375 -0.234375 1.40625 -0.59375z" fill-rule="nonzero"></path><path fill="#000000" d="m895.60333 119.96987l5.234375 -13.59375l1.9375 0l5.5625 13.59375l-2.046875 0l-1.59375 -4.125l-5.6875 0l-1.484375 4.125l-1.921875 0zm3.921875 -5.578125l4.609375 0l-1.40625 -3.78125q-0.65625 -1.703125 -0.96875 -2.8125q-0.265625 1.3125 -0.734375 2.59375l-1.5 4.0zm16.193604 5.578125l0 -1.25q-0.9375 1.46875 -2.75 1.46875q-1.171875 0 -2.171875 -0.640625q-0.984375 -0.65625 -1.53125 -1.8125q-0.53125 -1.171875 -0.53125 -2.6875q0 -1.46875 0.484375 -2.671875q0.5 -1.203125 1.46875 -1.84375q0.984375 -0.640625 2.203125 -0.640625q0.890625 0 1.578125 0.375q0.703125 0.375 1.140625 0.984375l0 -4.875l1.65625 0l0 13.59375l-1.546875 0zm-5.28125 -4.921875q0 1.890625 0.796875 2.828125q0.8125 0.9375 1.890625 0.9375q1.09375 0 1.859375 -0.890625q0.765625 -0.890625 0.765625 -2.734375q0 -2.015625 -0.78125 -2.953125q-0.78125 -0.953125 -1.921875 -0.953125q-1.109375 0 -1.859375 0.90625q-0.75 0.90625 -0.75 2.859375zm15.703857 3.703125q-0.9375 0.796875 -1.796875 1.125q-0.859375 0.3125 -1.84375 0.3125q-1.609375 0 -2.484375 -0.78125q-0.875 -0.796875 -0.875 -2.03125q0 -0.734375 0.328125 -1.328125q0.328125 -0.59375 0.859375 -0.953125q0.53125 -0.359375 1.203125 -0.546875q0.5 -0.140625 1.484375 -0.25q2.03125 -0.25 2.984375 -0.578125q0 -0.34375 0 -0.4375q0 -1.015625 -0.46875 -1.4375q-0.640625 -0.5625 -1.90625 -0.5625q-1.171875 0 -1.734375 0.40625q-0.5625 0.40625 -0.828125 1.46875l-1.640625 -0.234375q0.234375 -1.046875 0.734375 -1.6875q0.515625 -0.640625 1.46875 -0.984375q0.96875 -0.359375 2.25 -0.359375q1.265625 0 2.046875 0.296875q0.78125 0.296875 1.15625 0.75q0.375 0.453125 0.515625 1.140625q0.09375 0.421875 0.09375 1.53125l0 2.234375q0 2.328125 0.09375 2.953125q0.109375 0.609375 0.4375 1.171875l-1.75 0q-0.265625 -0.515625 -0.328125 -1.21875zm-0.140625 -3.71875q-0.90625 0.359375 -2.734375 0.625q-1.03125 0.140625 -1.453125 0.328125q-0.421875 0.1875 -0.65625 0.546875q-0.234375 0.359375 -0.234375 0.796875q0 0.671875 0.5 1.125q0.515625 0.4375 1.484375 0.4375q0.96875 0 1.71875 -0.421875q0.75 -0.4375 1.109375 -1.15625q0.265625 -0.578125 0.265625 -1.671875l0 -0.609375zm4.0787964 8.71875l0 -13.640625l1.53125 0l0 1.28125q0.53125 -0.75 1.203125 -1.125q0.6875 -0.375 1.640625 -0.375q1.265625 0 2.234375 0.65625q0.96875 0.640625 1.453125 1.828125q0.5 1.1875 0.5 2.59375q0 1.515625 -0.546875 2.734375q-0.546875 1.203125 -1.578125 1.84375q-1.03125 0.640625 -2.171875 0.640625q-0.84375 0 -1.515625 -0.34375q-0.65625 -0.359375 -1.078125 -0.890625l0 4.796875l-1.671875 0zm1.515625 -8.65625q0 1.90625 0.765625 2.8125q0.78125 0.90625 1.875 0.90625q1.109375 0 1.890625 -0.9375q0.796875 -0.9375 0.796875 -2.921875q0 -1.875 -0.78125 -2.8125q-0.765625 -0.9375 -1.84375 -0.9375q-1.0625 0 -1.890625 1.0q-0.8125 1.0 -0.8125 2.890625zm12.516357 3.375l0.234375 1.484375q-0.703125 0.140625 -1.265625 0.140625q-0.90625 0 -1.40625 -0.28125q-0.5 -0.296875 -0.703125 -0.75q-0.203125 -0.46875 -0.203125 -1.984375l0 -5.65625l-1.234375 0l0 -1.3125l1.234375 0l0 -2.4375l1.65625 -1.0l0 3.4375l1.6875 0l0 1.3125l-1.6875 0l0 5.75q0 0.71875 0.078125 0.921875q0.09375 0.203125 0.296875 0.328125q0.203125 0.125 0.578125 0.125q0.265625 0 0.734375 -0.078125zm8.277039 -1.671875l1.71875 0.21875q-0.40625 1.5 -1.515625 2.34375q-1.09375 0.828125 -2.8125 0.828125q-2.15625 0 -3.421875 -1.328125q-1.265625 -1.328125 -1.265625 -3.734375q0 -2.484375 1.265625 -3.859375q1.28125 -1.375 3.328125 -1.375q1.984375 0 3.234375 1.34375q1.25 1.34375 1.25 3.796875q0 0.140625 -0.015625 0.4375l-7.34375 0q0.09375 1.625 0.921875 2.484375q0.828125 0.859375 2.0625 0.859375q0.90625 0 1.546875 -0.46875q0.65625 -0.484375 1.046875 -1.546875zm-5.484375 -2.703125l5.5 0q-0.109375 -1.234375 -0.625 -1.859375q-0.796875 -0.96875 -2.078125 -0.96875q-1.140625 0 -1.9375 0.78125q-0.78125 0.765625 -0.859375 2.046875zm9.094482 5.875l0 -9.859375l1.5 0l0 1.5q0.578125 -1.046875 1.0625 -1.375q0.484375 -0.34375 1.078125 -0.34375q0.84375 0 1.71875 0.546875l-0.578125 1.546875q-0.609375 -0.359375 -1.234375 -0.359375q-0.546875 0 -0.984375 0.328125q-0.421875 0.328125 -0.609375 0.90625q-0.28125 0.890625 -0.28125 1.953125l0 5.15625l-1.671875 0z" fill-rule="nonzero"></path><path fill="#000000" fill-opacity="0.0" d="m347.0525 113.049866l145.07086 116.157486" fill-rule="evenodd"></path><path stroke="#000000" stroke-width="3.0" stroke-linejoin="round" stroke-linecap="butt" d="m347.0525 113.049866l131.01999 104.90701" fill-rule="evenodd"></path><path fill="#000000" stroke="#000000" stroke-width="3.0" stroke-linecap="butt" d="m474.97537 221.82494l13.724487 4.6412354l-7.530243 -12.377335z" fill-rule="evenodd"></path><path fill="#000000" fill-opacity="0.0" d="m697.541 229.20705l106.11023 -116.157486" fill-rule="evenodd"></path><path stroke="#000000" stroke-width="3.0" stroke-linejoin="round" stroke-linecap="butt" d="m697.541 229.20705l93.97003 -102.86779" fill-rule="evenodd"></path><path fill="#000000" stroke="#000000" stroke-width="3.0" stroke-linecap="butt" d="m795.16956 129.6813l5.5237427 -13.393707l-12.840759 6.7096024z" fill-rule="evenodd"></path><path fill="#000000" fill-opacity="0.0" d="m594.8268 477.1811l0 88.09448" fill-rule="evenodd"></path><path stroke="#000000" stroke-width="3.0" stroke-linejoin="round" stroke-linecap="butt" d="m594.8268 477.1811l0 70.09448" fill-rule="evenodd"></path><path fill="#000000" stroke="#000000" stroke-width="3.0" stroke-linecap="butt" d="m589.8716 547.2756l4.9552 13.614319l4.9552 -13.614319z" fill-rule="evenodd"></path><path fill="#000000" fill-opacity="0.0" d="m561.3202 563.95013l2.6141968 -89.38583" fill-rule="evenodd"></path><path stroke="#000000" stroke-width="3.0" stroke-linejoin="round" stroke-linecap="butt" stroke-dasharray="12.0,9.0" d="m561.3202 563.95013l2.0880127 -71.393555" fill-rule="evenodd"></path><path fill="#000000" stroke="#000000" stroke-width="3.0" stroke-linecap="butt" d="m568.36127 492.70148l-4.5551147 -13.753326l-5.351074 13.463593z" fill-rule="evenodd"></path><path fill="#000000" fill-opacity="0.0" d="m469.30185 260.28348l-120.944885 -97.29135" fill-rule="evenodd"></path><path stroke="#000000" stroke-width="3.0" stroke-linejoin="round" stroke-linecap="butt" stroke-dasharray="12.0,9.0" d="m469.30185 260.28348l-106.919586 -86.00902" fill-rule="evenodd"></path><path fill="#000000" stroke="#000000" stroke-width="3.0" stroke-linecap="butt" d="m365.48816 170.41345l-13.713928 -4.6723785l7.502136 12.394394z" fill-rule="evenodd"></path><path fill="#000000" fill-opacity="0.0" d="m807.14435 176.15224l-82.80316 85.44881" fill-rule="evenodd"></path><path stroke="#000000" stroke-width="3.0" stroke-linejoin="round" stroke-linecap="butt" stroke-dasharray="12.0,9.0" d="m807.14435 176.15224l-70.27692 72.52234" fill-rule="evenodd"></path><path fill="#000000" stroke="#000000" stroke-width="3.0" stroke-linecap="butt" d="m733.30896 245.22626l-5.9157104 13.22525l13.032715 -6.328583z" fill-rule="evenodd"></path><path fill="#000000" fill-opacity="0.0" d="m32.863518 247.13911l205.07086 0l0 255.0236l-205.07086 0z" fill-rule="evenodd"></path><path fill="#000000" d="m54.113518 263.6685q-0.21875 0.890625 -0.375 2.453125q-0.140625 1.546875 -0.4375 3.328125l3.484375 0q1.328125 0 2.8125 -0.0625l0 1.40625q-1.546875 -0.078125 -2.890625 -0.078125l-3.78125 0q-0.671875 1.484375 -2.015625 2.609375q-1.328125 1.109375 -3.109375 1.734375q-1.78125 0.640625 -3.1875 1.0q-0.296875 -0.890625 -1.265625 -1.40625q2.15625 -0.21875 4.59375 -1.21875q2.453125 -1.015625 3.421875 -2.71875l-5.265625 0q-1.34375 0 -2.96875 0.078125l0 -1.40625q1.703125 0.0625 2.96875 0.0625l5.78125 0q0.234375 -1.25 0.34375 -2.703125q0.109375 -1.453125 0.03125 -3.53125q0.890625 0.296875 1.859375 0.453125zm-2.59375 -5.203125q0.59375 1.1875 1.03125 2.609375l6.453125 0q-0.0625 0.8125 -0.0625 1.625q0 0.75 0.0625 1.640625l-1.703125 0l0 -2.078125l-11.796875 0l0 2.21875l-1.640625 0q0.078125 -0.890625 0.078125 -1.703125q0 -0.890625 -0.078125 -1.703125l6.828125 0q-0.21875 -0.890625 -0.8125 -2.078125q0.59375 -0.234375 1.640625 -0.53125zm2.21875 13.140625q1.640625 0.890625 3.125 1.671875q1.484375 0.78125 2.59375 1.453125q-0.515625 0.59375 -1.109375 1.265625q-1.34375 -0.96875 -2.90625 -1.828125q-1.546875 -0.859375 -2.671875 -1.296875q0.59375 -0.75 0.96875 -1.265625zm-8.390625 -5.71875q1.265625 0.59375 3.5 2.078125q-0.296875 0.453125 -0.890625 1.1875q-2.078125 -1.546875 -3.34375 -2.078125q0.4375 -0.4375 0.734375 -1.1875zm5.875 -0.21875q-0.53125 0.59375 -0.890625 1.1875q-2.375 -1.703125 -3.5 -2.078125q0.375 -0.515625 0.828125 -1.1875l3.5625 2.078125zm19.546875 -4.375q0 -1.109375 -0.234375 -2.453125q0.96875 0.078125 2.015625 0.21875q-0.234375 0.453125 -0.3125 1.453125q-0.0625 1.0 0.015625 2.859375l2.515625 -0.453125q1.265625 -0.296875 2.53125 -0.65625l0.296875 1.40625q-1.265625 0.140625 -2.609375 0.375l-2.671875 0.515625q0 1.1875 0.15625 2.078125l2.890625 -0.515625q1.484375 -0.296875 2.828125 -0.75l0.21875 1.40625q-1.34375 0.234375 -2.828125 0.53125l-2.890625 0.515625q0.15625 1.484375 0.75 2.75q0.65625 -0.53125 1.28125 -1.1875q0.640625 -0.671875 1.15625 -1.484375q1.125 0.890625 1.71875 1.1875q-0.96875 0.4375 -1.53125 1.0q-0.546875 0.546875 -1.8125 1.734375q0.890625 1.484375 1.59375 1.90625q0.703125 0.40625 1.0 0.03125q0.296875 -0.375 0.515625 -1.5625q0.671875 0.515625 1.5625 0.8125q-1.265625 3.28125 -2.75 2.640625q-1.484375 -0.625 -3.109375 -2.9375q-1.046875 0.828125 -2.046875 1.53125q-1.0 0.703125 -2.484375 1.453125q-0.375 -0.75 -1.109375 -1.34375q1.484375 -0.515625 2.515625 -1.109375q1.046875 -0.59375 2.375 -1.71875q-0.65625 -1.484375 -0.953125 -3.484375q-2.234375 0.375 -3.125 0.671875l-0.21875 -1.40625q0.890625 0 3.046875 -0.453125q-0.15625 -1.1875 -0.15625 -2.0q-2.0 0.4375 -2.75 0.671875l-0.296875 -1.421875q0.75 0 2.90625 -0.4375l0 -2.375zm-4.453125 -1.703125q-0.75 0.65625 -1.453125 1.890625q-0.703125 1.21875 -1.890625 3.0q1.78125 -0.078125 2.453125 -0.078125q0.65625 -1.109375 1.1875 -2.4375q0.734375 0.515625 1.625 0.8125q-0.734375 0.734375 -1.515625 2.0q-0.78125 1.265625 -2.71875 4.3125q2.015625 -0.15625 3.5625 -0.296875q-0.21875 0.734375 -0.21875 1.25q-0.515625 0 -2.296875 0.1875q-1.78125 0.1875 -2.890625 0.484375q-0.078125 -0.734375 -0.453125 -1.5625q0.890625 -0.21875 1.625 -1.171875q0.75 -0.96875 1.5625 -2.453125q-2.4375 0.140625 -3.109375 0.59375q-0.21875 -0.828125 -0.671875 -1.640625q0.96875 -0.671875 1.859375 -2.1875q0.890625 -1.515625 1.625 -3.53125q0.75 0.53125 1.71875 0.828125zm1.84375 11.875q-0.0625 0.8125 0 1.25q-1.84375 0.375 -3.328125 0.75q-1.484375 0.375 -2.75 0.8125q-0.21875 -0.8125 -0.8125 -1.625q2.078125 -0.234375 3.1875 -0.40625q1.109375 -0.1875 3.703125 -0.78125zm6.765625 -9.359375q-0.53125 -0.8125 -1.421875 -1.921875l1.1875 -0.59375q0.296875 0.359375 1.484375 1.78125q-0.734375 0.296875 -1.25 0.734375z" fill-rule="nonzero"></path><path fill="#000000" d="m83.03539 265.3716l1.703125 0l0 1.640625l-1.703125 0l0 -1.640625zm0 6.828125l1.703125 0l0 1.640625l-1.703125 0l0 -1.640625zm15.8125 1.1875l7.34375 0l0 1.421875l-16.03125 0l0 -1.421875l7.203125 0l0 -4.59375l-5.125 0l0 -1.421875l5.125 0l0 -3.625l-6.53125 0l0 -1.421875l7.265625 0q-1.1875 -1.40625 -2.671875 -2.4375l1.265625 -1.125q1.484375 0.96875 2.96875 2.53125l-1.328125 1.03125l7.046875 0l0 1.421875l-6.53125 0l0 3.625l5.125 0l0 1.421875l-5.125 0l0 4.59375z" fill-rule="nonzero"></path><path fill="#000000" d="m119.92602 258.76224q0.890625 0.234375 1.703125 0.234375q-0.140625 0.734375 -0.1875 1.671875q-0.03125 0.921875 -0.03125 2.25l4.15625 0q-0.078125 0.96875 -0.15625 2.15625l-0.359375 8.46875q-0.234375 1.484375 -1.234375 1.8125q-1.0 0.34375 -2.265625 0.484375q-0.21875 -0.890625 -0.734375 -1.625q1.625 0.0625 2.21875 -0.1875q0.59375 -0.265625 0.59375 -1.015625l0.453125 -8.828125l-2.671875 0q-0.15625 3.265625 -0.484375 4.984375q-0.328125 1.703125 -1.046875 3.15625q-0.703125 1.4375 -2.84375 3.734375q-0.75 -0.734375 -1.34375 -0.953125q1.40625 -1.125 2.296875 -2.34375q0.890625 -1.234375 1.265625 -2.53125q0.375 -1.296875 0.515625 -2.703125q0.15625 -1.40625 0.234375 -3.34375l-1.265625 0q-0.8125 0 -1.9375 0.078125l0 -1.40625q1.125 0.0625 2.078125 0.0625l1.125 0l0 -2.078125q0 -1.03125 -0.078125 -2.078125zm-11.4375 6.3125q1.125 0.078125 2.671875 0.078125l2.828125 0q1.328125 0 3.046875 -0.078125l0 1.34375q-1.71875 -0.078125 -2.96875 -0.078125l-0.828125 0q-0.4375 1.1875 -1.0 2.53125q-0.546875 1.328125 -1.296875 2.65625q2.890625 -0.296875 4.375 -0.59375q-0.359375 -0.890625 -1.1875 -2.21875q0.828125 -0.453125 1.1875 -0.75q0.75 1.34375 1.265625 2.28125q0.515625 0.921875 1.109375 2.25q-0.59375 0.375 -1.328125 0.75q-0.296875 -0.671875 -0.515625 -1.125q-2.375 0.375 -3.828125 0.609375q-1.453125 0.21875 -2.484375 0.578125q-0.296875 -0.734375 -0.75 -1.40625q0.96875 -0.59375 1.75 -2.375q0.78125 -1.78125 1.15625 -3.1875l-0.53125 0q-1.546875 0 -2.671875 0.078125l0 -1.34375zm5.125 -4.15625q1.265625 0 2.828125 -0.078125l0 1.421875q-1.5625 -0.078125 -2.828125 -0.078125l-1.78125 0q-1.1875 0 -2.296875 0.078125l0 -1.421875q1.03125 0.078125 2.21875 0.078125l1.859375 0zm30.390617 12.546875q0.0625 1.484375 -0.75 1.890625q-0.8125 0.40625 -2.375 0.640625q-0.21875 -0.890625 -0.59375 -1.78125q1.484375 0.0625 1.890625 -0.15625q0.40625 -0.21875 0.484375 -0.890625l0 -12.546875l-7.203125 0l0 6.6875q0 3.109375 -0.515625 4.9375q-0.515625 1.8125 -1.859375 3.75q-0.4375 -0.59375 -1.328125 -1.046875q0.96875 -1.109375 1.4375 -2.1875q0.484375 -1.078125 0.703125 -2.296875q0.234375 -1.234375 0.234375 -5.09375q0 -3.9375 -0.078125 -5.859375l10.015625 0q-0.0625 1.109375 -0.0625 2.96875l0 10.984375zm-2.453125 -4.828125q-0.078125 1.046875 -0.078125 1.9375q0 0.890625 0.078125 2.21875l-5.046875 0q0.078125 -1.328125 0.078125 -2.21875q0 -0.890625 -0.078125 -1.9375l5.046875 0zm-8.90625 0.671875q0.296875 0.671875 0.8125 1.1875q-0.96875 0.96875 -1.5625 1.640625q-0.59375 0.65625 -1.625 1.765625q-0.515625 -0.59375 -0.96875 -1.03125q0.515625 -0.59375 0.515625 -1.265625l0 -5.9375l-0.65625 0q-0.53125 0 -1.9374924 0.078125l0 -1.34375q1.4062424 0.078125 1.9374924 0.078125l2.078125 0q-0.078125 1.34375 -0.078125 2.96875l0 3.484375q0.375 -0.296875 1.484375 -1.625zm5.71875 -6.15625q0 -0.890625 -0.078125 -1.859375l1.40625 0q-0.078125 0.890625 -0.078125 1.859375q0.828125 0 1.9375 -0.078125l0 1.265625q-1.109375 -0.078125 -1.9375 -0.078125l0 1.859375q1.34375 0 2.234375 -0.078125l0 1.328125q-1.1875 -0.0625 -2.75 -0.0625q-1.5625 0 -2.8125 0.0625l0 -1.328125q1.25 0.078125 2.078125 0.078125l0 -1.859375q-0.96875 0 -2.015625 0.078125l0 -1.265625q1.125 0.078125 2.015625 0.078125zm1.84375 8.609375l0 -2.078125l-2.375 0l0 2.078125l2.375 0zm-10.15625 -12.625q0.8125 0.96875 2.140625 2.75q-0.65625 0.375 -1.1875 0.96875q-1.484375 -2.234375 -2.078125 -2.828125q0.59375 -0.375 1.125 -0.890625z" fill-rule="nonzero"></path><path fill="#000000" d="m160.34789 269.44974l-4.8125 0l0 5.65625l-1.484375 0l0 -5.65625l-4.453125 0q-0.15625 3.859375 -2.3125 6.171875l-1.1875 -1.1875q2.015625 -2.234375 2.015625 -5.203125l0 -9.5l13.71875 0l0 14.171875q0 1.203125 -1.1875 1.203125l-2.078125 0l-0.359375 -1.640625l1.84375 0q0.296875 0 0.296875 -0.296875l0 -3.71875zm-10.75 -4.15625l0 2.75l4.453125 0l0 -2.75l-4.453125 0zm0 -4.15625l0 2.75l4.453125 0l0 -2.75l-4.453125 0zm5.9375 4.15625l0 2.75l4.8125 0l0 -2.75l-4.8125 0zm0 -4.15625l0 2.75l4.8125 0l0 -2.75l-4.8125 0z" fill-rule="nonzero"></path><path fill="#000000" d="m50.176018 287.6685l-3.265625 0.15625l0 -1.1875l3.265625 -0.078125l0 -1.1875l-4.15625 0l0 6.234375q0 2.8125 -1.921875 5.71875l-1.421875 -1.109375q1.859375 -2.390625 1.859375 -5.421875l0 -6.609375l5.640625 0l0 -3.640625l1.40625 0q0.59375 0.078125 0.078125 0.453125l0 1.03125l5.125 0l0 1.1875l-5.125 0l0 0.96875l7.578125 0q-0.15625 1.5625 -0.59375 2.890625l-1.484375 -0.296875q0.296875 -0.96875 0.359375 -1.40625l-5.859375 0l0 1.03125l4.53125 -0.140625l0 1.1875l-4.53125 0.078125l0 0.515625q0 0.515625 0.515625 0.515625l3.71875 0q0.59375 0 0.671875 -0.296875l0.21875 -0.671875l1.40625 0.296875l-0.296875 0.96875q-0.296875 0.890625 -1.328125 0.890625l-5.046875 0q-1.34375 0 -1.34375 -1.265625l0 -0.8125zm7.875 3.640625q0.21875 0.21875 -0.15625 0.4375q-0.375 1.5625 -1.1875 3.421875l-1.484375 -0.59375q0.75 -1.9375 1.109375 -3.78125l1.71875 0.515625zm-5.421875 4.453125l0 -5.265625l1.40625 0q0.59375 0.0625 0.078125 0.4375l0 4.828125l5.265625 0l0 1.40625l-13.734375 0l0 -1.40625l4.390625 0l0 -5.265625l1.40625 0q0.59375 0.0625 0.078125 0.4375l0 4.828125l1.109375 0zm-4.90625 -0.890625q-0.515625 -1.859375 -1.109375 -3.265625l1.484375 -0.671875q0.890625 1.703125 1.265625 3.265625l-1.640625 0.671875z" fill-rule="nonzero"></path><path fill="#000000" d="m71.11352 283.2935q0 -1.109375 -0.234375 -2.453125q0.96875 0.078125 2.015625 0.21875q-0.234375 0.453125 -0.3125 1.453125q-0.0625 1.0 0.015625 2.859375l2.515625 -0.453125q1.265625 -0.296875 2.53125 -0.65625l0.296875 1.40625q-1.265625 0.140625 -2.609375 0.375l-2.671875 0.515625q0 1.1875 0.15625 2.078125l2.890625 -0.515625q1.484375 -0.296875 2.828125 -0.75l0.21875 1.40625q-1.34375 0.234375 -2.828125 0.53125l-2.890625 0.515625q0.15625 1.484375 0.75 2.75q0.65625 -0.53125 1.28125 -1.1875q0.640625 -0.671875 1.15625 -1.484375q1.125 0.890625 1.71875 1.1875q-0.96875 0.4375 -1.53125 1.0q-0.546875 0.546875 -1.8125 1.734375q0.890625 1.484375 1.59375 1.90625q0.703125 0.40625 1.0 0.03125q0.296875 -0.375 0.515625 -1.5625q0.671875 0.515625 1.5625 0.8125q-1.265625 3.28125 -2.75 2.640625q-1.484375 -0.625 -3.109375 -2.9375q-1.046875 0.828125 -2.046875 1.53125q-1.0 0.703125 -2.484375 1.453125q-0.375 -0.75 -1.109375 -1.34375q1.484375 -0.515625 2.515625 -1.109375q1.046875 -0.59375 2.375 -1.71875q-0.65625 -1.484375 -0.953125 -3.484375q-2.234375 0.375 -3.125 0.671875l-0.21875 -1.40625q0.890625 0 3.046875 -0.453125q-0.15625 -1.1875 -0.15625 -2.0q-2.0 0.4375 -2.75 0.671875l-0.296875 -1.421875q0.75 0 2.90625 -0.4375l0 -2.375zm-4.453125 -1.703125q-0.75 0.65625 -1.453125 1.890625q-0.703125 1.21875 -1.890625 3.0q1.78125 -0.078125 2.453125 -0.078125q0.65625 -1.109375 1.1875 -2.4375q0.734375 0.515625 1.625 0.8125q-0.734375 0.734375 -1.515625 2.0q-0.78125 1.265625 -2.71875 4.3125q2.015625 -0.15625 3.5625 -0.296875q-0.21875 0.734375 -0.21875 1.25q-0.515625 0 -2.296875 0.1875q-1.78125 0.1875 -2.890625 0.484375q-0.078125 -0.734375 -0.453125 -1.5625q0.890625 -0.21875 1.625 -1.171875q0.75 -0.96875 1.5625 -2.453125q-2.4375 0.140625 -3.109375 0.59375q-0.21875 -0.828125 -0.671875 -1.640625q0.96875 -0.671875 1.859375 -2.1875q0.890625 -1.515625 1.625 -3.53125q0.75 0.53125 1.71875 0.828125zm1.84375 11.875q-0.0625 0.8125 0 1.25q-1.84375 0.375 -3.328125 0.75q-1.484375 0.375 -2.75 0.8125q-0.21875 -0.8125 -0.8125 -1.625q2.078125 -0.234375 3.1875 -0.40625q1.109375 -0.1875 3.703125 -0.78125zm6.765625 -9.359375q-0.53125 -0.8125 -1.421875 -1.921875l1.1875 -0.59375q0.296875 0.359375 1.484375 1.78125q-0.734375 0.296875 -1.25 0.734375z" fill-rule="nonzero"></path><path fill="#000000" d="m83.37914 287.3716l1.703125 0l0 1.640625l-1.703125 0l0 -1.640625zm0 6.828125l1.703125 0l0 1.640625l-1.703125 0l0 -1.640625zm14.546875 -6.234375l6.90625 0l-0.75 6.6875q-0.296875 2.671875 -2.140625 2.671875l-2.96875 0l-0.375 -1.640625l3.1875 0q0.515625 0 0.671875 -1.109375l0.59375 -5.203125l-5.34375 0q-0.96875 4.75 -6.390625 8.171875l-1.03125 -1.5625q5.78125 -2.96875 6.15625 -9.28125l0.078125 -1.328125l-6.234375 0l0 -1.640625l7.265625 0l0 -2.96875l1.640625 0q0.734375 0.15625 0.078125 0.59375l0 2.375l7.484375 0l0 1.640625l-8.53125 0l-0.296875 2.59375zm24.5 6.453125l-1.71875 -2.140625l1.265625 -0.96875q2.53125 2.75 3.859375 5.265625l-1.5625 1.046875q-0.515625 -1.046875 -1.03125 -1.78125l-9.0625 0.890625q-0.0625 0.59375 -0.359375 0.296875l-0.59375 -2.015625l2.296875 -0.0625q1.40625 -2.453125 2.453125 -5.125l-4.234375 0l0 -1.40625l4.890625 0l0 -3.046875l-3.625 0l0 -1.40625l3.625 0l0 -2.96875l1.640625 0q0.734375 0.140625 0.078125 0.59375l0 2.375l4.0 0l0 1.40625l-4.0 0l0 3.046875l5.40625 0l0 1.40625l-5.78125 0q-1.1875 2.59375 -2.75 5.046875l5.203125 -0.453125zm-8.984375 -2.734375q-1.484375 3.40625 -2.59375 5.5625q0.0625 0.59375 -0.375 0.296875l-1.484375 -1.109375q1.40625 -1.78125 3.109375 -5.5l1.34375 0.75zm-1.5625 -2.15625q-1.109375 -1.1875 -2.59375 -2.296875l1.03125 -1.265625q1.859375 1.1875 2.671875 2.21875l-1.109375 1.34375zm0.8125 -4.078125q-1.328125 -1.1875 -2.59375 -2.078125l1.046875 -1.265625q1.546875 0.96875 2.671875 2.078125l-1.125 1.265625zm29.249992 0.0625l0.140625 -0.359375l1.34375 1.03125q0.4375 0.375 -0.296875 0.515625q-0.8125 2.609375 -2.15625 4.390625q1.640625 1.328125 3.640625 2.0l-0.75 1.625q-2.0 -0.734375 -3.921875 -2.4375q-1.859375 1.703125 -3.796875 2.671875l-0.890625 -1.421875q1.5625 -0.734375 3.5625 -2.296875q-1.546875 -2.21875 -2.078125 -4.296875l-1.109375 0l0 2.140625q0 3.5625 -1.78125 5.34375l-0.96875 -1.484375q1.265625 -1.03125 1.265625 -4.0l0 -7.421875l9.875 0l0 1.625l-8.390625 0l0 2.375l6.3125 0zm3.109375 10.171875l-0.296875 1.421875l-9.046875 0q-2.671875 0 -4.234375 -1.9375q-0.671875 1.109375 -2.375 2.15625l-0.96875 -1.640625q1.640625 -0.671875 2.53125 -1.484375l0 -4.53125l-2.453125 0l0 -1.625l3.9375 0l0 6.078125q1.1875 1.5625 3.484375 1.5625l9.421875 0zm-14.90625 -14.546875q1.78125 1.1875 2.734375 2.75l-1.1875 1.1875q-1.109375 -1.5625 -2.671875 -2.75l1.125 -1.1875zm8.015625 5.796875q0.65625 2.0 1.703125 3.109375q1.109375 -1.5625 1.5625 -3.109375l-3.265625 0zm15.28125 4.0l4.15625 0l0 -3.9375l-4.15625 0l0 3.9375zm4.15625 2.15625l0 -0.75l-4.15625 0l0 0.828125l-1.484375 0l0 -7.578125l7.125 0l0 7.5l-1.484375 0zm-8.09375 2.078125l11.953125 0l0 -12.09375l-11.953125 0l0 12.09375zm11.953125 2.078125l0 -0.671875l-11.953125 0l0 1.046875l-1.484375 0l0 -15.96875l14.921875 0l0 15.59375l-1.484375 0z" fill-rule="nonzero"></path></g></svg>

